<?xml version="1.0" encoding="UTF-8" standalone="no"?>
<!-- Generator: Adobe Illustrator 17.0.1, SVG Export Plug-In . SVG Version: 6.00 Build 0)  -->

<svg
   xmlns:dc="http://purl.org/dc/elements/1.1/"
   xmlns:cc="http://creativecommons.org/ns#"
   xmlns:rdf="http://www.w3.org/1999/02/22-rdf-syntax-ns#"
   xmlns:svg="http://www.w3.org/2000/svg"
   xmlns="http://www.w3.org/2000/svg"
   xmlns:xlink="http://www.w3.org/1999/xlink"
   xmlns:sodipodi="http://sodipodi.sourceforge.net/DTD/sodipodi-0.dtd"
   xmlns:inkscape="http://www.inkscape.org/namespaces/inkscape"
   version="1.1"
   x="0px"
   y="0px"
   width="86px"
   height="86px"
   viewBox="0 0 86 86"
   enable-background="new 0 0 86 86"
   xml:space="preserve"
   id="svg3418"
   inkscape:version="0.91 r13725"
   sodipodi:docname="Podcatcher_icon_sailfish.svg"><metadata
     id="metadata3443"><rdf:RDF><cc:Work
         rdf:about=""><dc:format>image/svg+xml</dc:format><dc:type
           rdf:resource="http://purl.org/dc/dcmitype/StillImage" /><dc:title></dc:title></cc:Work></rdf:RDF></metadata><defs
     id="defs3441"><linearGradient
       id="SVGID_1_-3"
       gradientUnits="userSpaceOnUse"
       x1="0.7169"
       y1="85.2831"
       x2="85.2831"
       y2="0.7169"><stop
         offset="0"
         style="stop-color:#EB424A"
         id="stop4256" /><stop
         offset="1"
         style="stop-color:#FF7500"
         id="stop4258" /></linearGradient><linearGradient
       y2="0.71689999"
       x2="85.283096"
       y1="85.283096"
       x1="0.71689999"
       gradientUnits="userSpaceOnUse"
       id="SVGID_1_"
       xlink:href="#waves_1_-2"><stop
         id="stop3423"
         style="stop-color:#6801ad;stop-opacity:1"
         offset="0" /><stop
         id="stop3425"
         style="stop-color:#ca02e2;stop-opacity:1"
         offset="1" /></linearGradient><radialGradient
       id="waves_1_"
       cx="40"
       cy="46.650002"
       r="28.187099"
       gradientTransform="matrix(1,0,0,-1,0,82)"
       gradientUnits="userSpaceOnUse"><stop
         offset="0.148"
         style="stop-color:#9501C5"
         id="stop12" /><stop
         offset="0.9388"
         style="stop-color:#FFFFFF"
         id="stop14" /></radialGradient><radialGradient
       id="waves_1_-2"
       cx="40"
       cy="46.650002"
       r="28.187099"
       gradientTransform="matrix(1,0,0,-1,0,82)"
       gradientUnits="userSpaceOnUse"><stop
         offset="0.148"
         style="stop-color:#9501C5"
         id="stop12-7" /><stop
         offset="0.9388"
         style="stop-color:#FFFFFF"
         id="stop14-0" /></radialGradient><radialGradient
       inkscape:collect="always"
       xlink:href="#waves_1_-2"
       id="radialGradient6375"
       cx="42"
       cy="38.163403"
       fx="42"
       fy="38.163403"
       r="30"
       gradientTransform="matrix(1.0333333,0,0,0.97454572,-0.4,0.7103914)"
       gradientUnits="userSpaceOnUse" /></defs><sodipodi:namedview
     pagecolor="#ffffff"
     bordercolor="#666666"
     borderopacity="1"
     objecttolerance="10"
     gridtolerance="10"
     guidetolerance="10"
     inkscape:pageopacity="0"
     inkscape:pageshadow="2"
     inkscape:window-width="960"
     inkscape:window-height="1028"
     id="namedview3439"
     showgrid="false"
     inkscape:zoom="3.8808651"
     inkscape:cx="44.700423"
     inkscape:cy="-14.25639"
     inkscape:window-x="960"
     inkscape:window-y="24"
     inkscape:window-maximized="0"
     inkscape:current-layer="svg3418" /><g
     id="Layer_2"
     display="none" /><path
     inkscape:connector-curvature="0"
     style="fill:url(#SVGID_1_);fill-opacity:1.0"
     id="path3427"
     d="M 84.277,0.3 43,0.3 C 19.417,0.3 0.3,19.418 0.3,43 l 0,41.277 c 0,0.786 0.637,1.423 1.423,1.423 L 43,85.7 C 66.583,85.7 85.7,66.582 85.7,43 l 0,-41.277 C 85.7,0.937 85.063,0.3 84.277,0.3 Z" /><g
     id="g6385"
     transform="translate(0,2.9999997)"><path
       style="fill:url(#radialGradient6375);fill-opacity:1"
       d="m 74,39.666173 c 0,-2.458635 -2.351724,-4.810372 -6.306897,-6.627622 2.565517,-3.634505 3.42069,-6.734521 2.244829,-8.872464 -1.28276,-2.137943 -4.382759,-2.993121 -8.765518,-2.565532 C 61.6,17.217773 60.851724,14.010857 58.606897,12.834988 56.468966,11.552223 53.262068,12.407402 49.734482,15.07983 47.810344,11.017738 45.45862,8.6659991 43,8.6659991 c -2.45862,0 -4.810344,2.3517389 -6.627586,6.3069319 C 32.737931,12.407402 29.637932,11.552223 27.5,12.728092 c -2.137932,1.282766 -2.993104,4.382783 -2.565517,8.765566 -4.382758,-0.427587 -7.589655,0.320691 -8.765518,2.565532 -1.282758,2.137944 -0.427585,5.344856 2.244829,8.872462 C 14.351724,34.855801 12,37.207538 12,39.666173 c 0,2.458635 2.351724,4.810371 6.306896,6.627625 -2.565516,3.634501 -3.420689,6.734516 -2.244828,8.872461 1.28276,2.137946 4.382759,2.993122 8.765517,2.565529 -0.427585,4.382786 0.32069,7.589698 2.565518,8.76557 0.641379,0.427585 1.389655,0.534481 2.244829,0.534481 0.855171,0 1.710343,-0.213792 2.779309,-0.534481 -0.213792,-0.641383 -0.534483,-1.282768 -0.748275,-2.031048 -1.389657,0.534488 -2.458623,0.534488 -3.206898,0.106896 -1.389653,-0.74828 -1.924136,-3.313808 -1.496551,-7.269001 1.068965,-0.106896 2.137931,-0.320696 3.206897,-0.534489 0,-0.74828 0.106895,-1.49656 0.213793,-2.244841 -1.068965,0.320698 -2.031035,0.534489 -2.886207,0.748281 0.32069,-1.710353 0.962068,-3.741402 1.710343,-5.879341 0.962071,0.213793 2.031037,0.320689 3.100001,0.427588 0.427587,-0.74828 0.96207,-1.389663 1.603449,-1.924149 -1.389655,-0.106898 -2.77931,-0.320692 -3.955173,-0.534485 0.427587,-1.175871 0.96207,-2.458637 1.603448,-3.741401 l 0.32069,-0.748282 -0.748275,-0.534484 c -1.175863,-0.855179 -2.244827,-1.710356 -3.206897,-2.458635 0.96207,-0.855177 2.031034,-1.603457 3.206897,-2.458633 l 0.748275,-0.534487 -0.32069,-0.74828 c -0.534483,-1.282767 -1.068965,-2.565532 -1.603448,-3.7414 1.28276,-0.213795 2.672414,-0.427589 4.06207,-0.534486 l 0.855172,-0.106898 0.106896,-0.855176 c 0.106898,-1.389663 0.32069,-2.779327 0.534484,-4.062091 1.175861,0.427589 2.45862,0.962074 3.741378,1.603456 l 0.748276,0.320691 0.534484,-0.74828 C 41.396551,26.838516 42.251724,25.769544 43,24.80747 c 0.855172,0.962074 1.603448,2.031046 2.45862,3.206913 l 0.534483,0.74828 0.748277,-0.320691 c 1.282758,-0.534486 2.565517,-1.068971 3.741378,-1.603456 0.213794,1.282764 0.427586,2.672428 0.534484,4.062091 l 0.106896,0.855176 0.855171,0.106898 c 1.389657,0.106897 2.779311,0.320691 4.06207,0.534486 -0.427586,1.175868 -0.962069,2.458633 -1.603447,3.741401 l -0.320691,0.748279 0.748276,0.534487 c 1.175862,0.855177 2.244826,1.710354 3.206897,2.458633 -0.962071,0.855177 -2.031035,1.603456 -3.206897,2.458635 l -0.748276,0.534484 0.320691,0.748282 c 0.534482,1.282764 1.068964,2.56553 1.603447,3.741401 -1.282759,0.213793 -2.565517,0.427587 -3.955172,0.534485 0.641378,0.641382 1.175861,1.282766 1.603449,1.924149 1.068964,-0.106899 2.13793,-0.320692 3.1,-0.427588 0.748276,2.137939 1.282758,4.168988 1.710343,5.879341 -0.962067,-0.213792 -1.924137,-0.427583 -2.886206,-0.748281 0.106897,0.748281 0.213793,1.496561 0.213793,2.244841 1.068966,0.320696 2.137932,0.534489 3.099999,0.641383 0.534483,3.955194 -0.106895,6.413827 -1.496551,7.269003 -0.748276,0.427593 -1.817241,0.427593 -3.206896,-0.106896 -0.213794,0.641384 -0.427587,1.282769 -0.748276,2.03105 0.96207,0.320687 1.924138,0.534487 2.77931,0.534487 0.855171,0 1.603448,-0.2138 2.244827,-0.534487 2.137931,-1.28277 2.993105,-4.382786 2.565518,-8.765573 4.382758,0.427593 7.589655,-0.320687 8.765517,-2.565527 C 71.113793,53.13521 70.25862,49.928299 67.586206,46.400694 71.648276,44.476544 74,42.124808 74,39.666173 Z M 60.744827,23.7385 c 3.955172,-0.534487 6.413793,0.106895 7.268966,1.496558 0.748275,1.389663 0,3.848298 -2.351725,7.055213 -1.924136,-0.748282 -4.168964,-1.282767 -6.627586,-1.817253 0.748276,-2.458634 1.389656,-4.703474 1.710345,-6.734518 z m -42.75862,1.496558 c 0.641378,-1.068971 2.244827,-1.603458 4.703448,-1.603458 0.748277,0 1.603448,0.106901 2.565518,0.213795 0.320689,2.031046 0.962068,4.275885 1.817242,6.627622 -2.458621,0.534486 -4.703449,1.068972 -6.627588,1.817254 -2.45862,-3.206916 -3.206897,-5.665549 -2.45862,-7.055212 z m -3.848275,14.431115 c 0,-1.603455 1.924136,-3.313812 5.558619,-4.917268 1.282759,1.603456 2.993104,3.206913 4.917243,4.917268 -1.924139,1.710356 -3.527587,3.313813 -4.917243,4.917268 -3.634483,-1.603455 -5.558619,-3.31381 -5.558619,-4.917268 z M 25.255173,55.593852 C 21.3,56.128331 18.84138,55.486947 17.986207,54.097292 c -0.748277,-1.389666 0,-3.848298 2.351725,-7.055215 1.924136,0.748279 4.168964,1.282765 6.627585,1.817251 -0.748276,2.458634 -1.389655,4.703475 -1.710344,6.734524 z m 3.95517,-12.186278 c -0.534481,1.175867 -0.962067,2.351737 -1.389653,3.527606 -2.244828,-0.427587 -4.275862,-0.962074 -5.986208,-1.49656 1.175862,-1.389663 2.672414,-2.779326 4.382759,-4.275885 0.962069,0.641382 1.924139,1.389662 2.993102,2.244839 z M 26.217241,38.27651 c -1.710345,-1.496559 -3.206897,-2.993121 -4.382759,-4.275885 1.710346,-0.534486 3.74138,-1.068973 5.986208,-1.496561 0.427586,1.175868 0.855172,2.24484 1.389653,3.527607 -1.068963,0.748281 -2.031033,1.496558 -2.993102,2.244839 z m 6.627586,-8.765565 c -1.282759,0.106896 -2.565518,0.32069 -3.741379,0.534485 -0.748276,-2.137944 -1.282758,-4.168988 -1.710345,-5.879342 1.710345,0.320691 3.74138,0.962075 5.879311,1.710354 -0.106897,1.175869 -0.213794,2.351737 -0.427587,3.634503 z m 0.962069,-5.772444 c -2.351723,-0.85518 -4.596553,-1.389665 -6.627586,-1.817255 -0.534483,-3.955192 0.106896,-6.413827 1.496552,-7.269005 1.389656,-0.748281 3.848276,0 7.055172,2.351737 -0.855172,1.924149 -1.496552,4.168988 -1.924138,6.734523 z m 5.451724,2.13794 c -1.175862,-0.534485 -2.351723,-0.962074 -3.527586,-1.389663 0.427586,-2.24484 0.962069,-4.275885 1.496552,-5.986241 1.389655,1.17587 2.77931,2.67243 4.275862,4.382784 -0.64138,0.962075 -1.389654,1.924149 -2.244828,2.993121 z M 38.082758,16.362594 C 39.57931,12.728092 41.396551,10.803942 43,10.803942 c 1.603448,0 3.313794,1.92415 4.917241,5.558652 C 46.313794,17.64536 44.710344,19.355716 43,21.279866 41.289656,19.355716 39.686206,17.64536 38.082758,16.362594 Z m 8.658622,9.513847 c -0.748277,-1.068971 -1.496552,-2.031046 -2.351725,-2.99312 1.496551,-1.710355 2.993103,-3.206914 4.275862,-4.382784 0.534483,1.710356 1.068965,3.741401 1.496551,5.986241 -1.068965,0.320692 -2.244827,0.855178 -3.420688,1.389663 z m 3.634482,-8.872463 c 3.206896,-2.351737 5.665517,-3.100018 7.055172,-2.351737 1.389656,0.748279 1.924139,3.313812 1.496551,7.269005 -2.031033,0.320692 -4.275861,0.962075 -6.627585,1.817255 -0.534482,-2.565534 -1.175862,-4.810373 -1.924138,-6.734523 z m 2.779311,12.506966 c -0.106898,-1.282766 -0.32069,-2.565532 -0.534483,-3.7414 2.13793,-0.748281 4.168966,-1.282766 5.879309,-1.710354 -0.32069,1.817251 -0.855172,3.848296 -1.603447,5.986239 -1.282759,-0.213795 -2.45862,-0.32069 -3.741379,-0.534485 z m 3.634483,6.413829 c 0.534482,-1.175869 0.962068,-2.351738 1.389653,-3.527606 2.244829,0.427588 4.275863,0.962074 5.986208,1.496559 -1.175861,1.389663 -2.672413,2.779326 -4.382759,4.275886 -0.962068,-0.641384 -1.924138,-1.389661 -2.993102,-2.244839 z m 1.496551,10.903509 c -0.427587,-1.175868 -0.855173,-2.244841 -1.389655,-3.527605 1.068966,-0.74828 2.031033,-1.496561 2.993104,-2.351737 1.710344,1.496559 3.206895,2.993119 4.382758,4.275885 -1.817242,0.641382 -3.74138,1.175869 -5.986207,1.603457 z m 9.727586,7.26901 c -0.748276,1.389655 -3.313794,1.924144 -7.268966,1.49656 -0.320689,-2.031049 -0.962069,-4.27589 -1.817242,-6.627626 2.458621,-0.534486 4.703448,-1.068972 6.627588,-1.817252 2.45862,3.10002 3.206895,5.558652 2.45862,6.948318 z m -1.710345,-9.513851 c -1.282758,-1.603455 -2.993104,-3.206912 -4.917242,-4.917269 1.924138,-1.710355 3.527587,-3.313809 4.917242,-4.917268 3.634484,1.496561 5.55862,3.313811 5.55862,4.917268 0,1.603457 -1.924136,3.313814 -5.55862,4.917269 z"
       class="st1"
       id="waves"
       inkscape:connector-curvature="0" /><path
       style="fill:#ffffff;fill-opacity:1;stroke:none;stroke-opacity:1"
       id="path18"
       d="m 51.551724,56.769716 c 0,6.413826 -6.52069,18.706996 -6.52069,18.706996 -1.068966,2.031051 -2.886207,2.031051 -4.062068,0 0,0 -6.52069,-12.29317 -6.52069,-18.706996 0,-4.703473 3.848276,-8.551771 8.551724,-8.551771 4.703448,0 8.551724,3.848298 8.551724,8.551771 z"
       class="st2"
       inkscape:connector-curvature="0" /><ellipse
       style="fill:#ffffff;fill-opacity:1"
       ry="6.4138284"
       rx="6.4137931"
       cy="39.666172"
       cx="42.999996"
       class="st2"
       id="head" /></g></svg>