<?xml version="1.0"?>
<!-- Converted with SVG Converter - Version 0.9.5 (Compiled Mon May 30 09:08:51 2011) - Copyright (C) 2011 Nokia -->
<svg xmlns="http://www.w3.org/2000/svg" width="80px" x="0px" version="1.1" y="0px" height="80px" viewBox="0 0 80 80" xmlns:xlink="http://www.w3.org/1999/xlink" baseProfile="tiny" id="Layer_1" xml:space="preserve">
 <g>
  <rect width="80" x="-0.5" y="-0.5" fill="none" height="80"/>
  <linearGradient gradientTransform="matrix(1 0 0 -1 -257.6602 -301.96)" id="CLIPPING_PATH__x28_MASK_x29__1_" y1="-380.46" x1="297.1602" y2="-302.46" gradientUnits="userSpaceOnUse" x2="297.1602">
   <stop offset="0" style="stop-color:#6801AD"/>
   <stop offset="1" style="stop-color:#CA02E2"/>
  </linearGradient>
  <path fill="url(#CLIPPING_PATH__x28_MASK_x29__1_)" id="CLIPPING_PATH__x28_MASK_x29__4_" d="M78.5,39.5c0,28.893-10.105,39-39,39&#xd;&#xa;&#x9;&#x9;c-28.895,0-39-10.107-39-39c0-28.894,10.105-39,39-39C68.395,0.5,78.5,10.606,78.5,39.5z"/>
  <path stroke-opacity="0.25" fill="#FFFFFF" fill-opacity="0.25" d="M39.5,0.5c28.895,0,39,10.106,39,39c0,28.893-10.105,39-39,39&#xd;&#xa;&#x9;&#x9;c-28.895,0-39-10.107-39-39C0.5,10.606,10.605,0.5,39.5,0.5 M39.5,1.5c-28.411,0-38,9.589-38,38s9.589,38,38,38s38-9.589,38-38&#xd;&#xa;&#x9;&#x9;S67.911,1.5,39.5,1.5L39.5,1.5z"/>
  <g>
   <path fill="#FFFFFF" d="M68.018,34.573c-0.541-1.053-1.459-1.947-2.643-2.753c-0.803-0.542-1.74-1.043-2.789-1.508&#xd;&#xa;&#x9;&#x9;&#x9;c0.62-0.851,1.15-1.682,1.559-2.486c0.644-1.273,1.021-2.489,1.022-3.659c0.002-0.764-0.172-1.511-0.552-2.167&#xd;&#xa;&#x9;&#x9;&#x9;c-0.533-0.927-1.417-1.575-2.456-1.964c-1.044-0.393-2.267-0.562-3.644-0.563c-0.666,0.001-1.385,0.056-2.123,0.134&#xd;&#xa;&#x9;&#x9;&#x9;c0.078-0.74,0.133-1.458,0.133-2.124c0-1.377-0.17-2.599-0.563-3.643c-0.39-1.039-1.037-1.922-1.964-2.456&#xd;&#xa;&#x9;&#x9;&#x9;c-0.655-0.38-1.403-0.554-2.167-0.552c-1.17,0.003-2.387,0.38-3.659,1.023c-0.805,0.409-1.637,0.934-2.487,1.555&#xd;&#xa;&#x9;&#x9;&#x9;c-0.762-1.711-1.611-3.12-2.597-4.151c-0.512-0.534-1.062-0.969-1.663-1.277C40.827,7.674,40.172,7.499,39.5,7.5&#xd;&#xa;&#x9;&#x9;&#x9;c-0.672-0.001-1.328,0.174-1.928,0.482c-1.052,0.542-1.947,1.459-2.752,2.643c-0.542,0.802-1.043,1.74-1.508,2.789&#xd;&#xa;&#x9;&#x9;&#x9;c-0.85-0.62-1.681-1.15-2.485-1.558c-1.273-0.643-2.49-1.021-3.659-1.023c-0.764-0.001-1.512,0.172-2.167,0.552l0,0&#xd;&#xa;&#x9;&#x9;&#x9;c-0.927,0.533-1.574,1.417-1.964,2.456c-0.394,1.044-0.562,2.265-0.563,3.643c0.001,0.666,0.056,1.384,0.134,2.124&#xd;&#xa;&#x9;&#x9;&#x9;c-0.74-0.079-1.458-0.133-2.124-0.134c-1.377,0.001-2.599,0.169-3.643,0.563c-1.039,0.39-1.922,1.037-2.456,1.964l0,0&#xd;&#xa;&#x9;&#x9;&#x9;c-0.379,0.656-0.554,1.403-0.552,2.167c0.003,1.17,0.38,2.386,1.023,3.659c0.409,0.804,0.934,1.636,1.554,2.488&#xd;&#xa;&#x9;&#x9;&#x9;c-1.711,0.76-3.119,1.611-4.151,2.596c-0.533,0.511-0.969,1.061-1.277,1.663c-0.308,0.598-0.483,1.254-0.482,1.926&#xd;&#xa;&#x9;&#x9;&#x9;c-0.001,0.672,0.174,1.328,0.482,1.927c0.542,1.052,1.459,1.948,2.644,2.753c0.802,0.541,1.74,1.043,2.788,1.508&#xd;&#xa;&#x9;&#x9;&#x9;c-0.619,0.851-1.149,1.683-1.557,2.485c-0.643,1.272-1.021,2.489-1.023,3.658c-0.001,0.765,0.172,1.513,0.552,2.168&#xd;&#xa;&#x9;&#x9;&#x9;c0.533,0.927,1.417,1.574,2.456,1.964c1.044,0.395,2.266,0.563,3.643,0.563c0.666,0,1.383-0.055,2.124-0.135&#xd;&#xa;&#x9;&#x9;&#x9;c-0.079,0.74-0.133,1.457-0.134,2.123c0.001,1.379,0.169,2.601,0.563,3.645c0.39,1.039,1.037,1.923,1.964,2.456&#xd;&#xa;&#x9;&#x9;&#x9;c0.656,0.38,1.403,0.554,2.167,0.553c0.815-0.003,1.655-0.196,2.519-0.524c-0.234-0.633-0.456-1.263-0.663-1.885&#xd;&#xa;&#x9;&#x9;&#x9;c-0.712,0.274-1.344,0.411-1.856,0.409c-0.474-0.002-0.845-0.101-1.167-0.285c-0.447-0.26-0.813-0.698-1.094-1.432&#xd;&#xa;&#x9;&#x9;&#x9;c-0.276-0.728-0.435-1.726-0.433-2.937c-0.001-0.73,0.071-1.555,0.184-2.424c0.909-0.165,1.86-0.381,2.845-0.639&#xd;&#xa;&#x9;&#x9;&#x9;c0.003-0.727,0.078-1.436,0.205-2.127c-0.938,0.266-1.84,0.488-2.697,0.665c0.348-1.685,0.869-3.538,1.547-5.509&#xd;&#xa;&#x9;&#x9;&#x9;c0.948,0.156,1.93,0.293,2.934,0.416c0.435-0.658,0.932-1.272,1.485-1.832c-1.288-0.133-2.531-0.299-3.726-0.488&#xd;&#xa;&#x9;&#x9;&#x9;c0.441-1.152,0.917-2.326,1.458-3.532l0.332-0.742l-0.658-0.477c-1.066-0.771-2.074-1.547-3.028-2.321&#xd;&#xa;&#x9;&#x9;&#x9;c0.958-0.778,1.956-1.557,3.028-2.333l0.658-0.477l-0.332-0.742c-0.54-1.203-1.015-2.375-1.455-3.524&#xd;&#xa;&#x9;&#x9;&#x9;c1.217-0.194,2.468-0.37,3.781-0.505l0.809-0.083l0.083-0.809c0.135-1.31,0.303-2.571,0.496-3.785&#xd;&#xa;&#x9;&#x9;&#x9;c1.153,0.441,2.328,0.917,3.534,1.458l0.742,0.332l0.477-0.658c0.771-1.066,1.547-2.073,2.32-3.027&#xd;&#xa;&#x9;&#x9;&#x9;c0.778,0.958,1.558,1.956,2.333,3.027l0.479,0.658l0.74-0.332c1.202-0.54,2.374-1.015,3.524-1.455&#xd;&#xa;&#x9;&#x9;&#x9;c0.192,1.217,0.368,2.468,0.505,3.781l0.084,0.809l0.809,0.083c1.311,0.135,2.571,0.303,3.784,0.496&#xd;&#xa;&#x9;&#x9;&#x9;c-0.44,1.153-0.917,2.328-1.458,3.533l-0.332,0.742l0.659,0.477c1.065,0.771,2.073,1.547,3.026,2.321&#xd;&#xa;&#x9;&#x9;&#x9;c-0.957,0.778-1.955,1.557-3.026,2.333l-0.659,0.477l0.332,0.742c0.539,1.203,1.016,2.374,1.454,3.523&#xd;&#xa;&#x9;&#x9;&#x9;c-1.198,0.19-2.431,0.365-3.722,0.498c0.555,0.561,1.052,1.177,1.488,1.836c1.002-0.121,1.987-0.254,2.934-0.409&#xd;&#xa;&#x9;&#x9;&#x9;c0.676,1.967,1.195,3.817,1.543,5.498c-0.855-0.177-1.76-0.399-2.696-0.664c0.127,0.69,0.202,1.399,0.205,2.125&#xd;&#xa;&#x9;&#x9;&#x9;c0.983,0.259,1.937,0.475,2.845,0.64c0.111,0.869,0.186,1.693,0.184,2.426c0.001,1.211-0.157,2.209-0.434,2.936&#xd;&#xa;&#x9;&#x9;&#x9;c-0.281,0.732-0.646,1.171-1.094,1.431c-0.322,0.185-0.693,0.283-1.167,0.285c-0.512,0.002-1.144-0.135-1.856-0.409&#xd;&#xa;&#x9;&#x9;&#x9;c-0.207,0.622-0.43,1.252-0.662,1.885c0.863,0.328,1.703,0.521,2.52,0.524c0.764,0.001,1.512-0.173,2.167-0.553&#xd;&#xa;&#x9;&#x9;&#x9;c0.927-0.533,1.574-1.417,1.964-2.455c0.393-1.045,0.563-2.267,0.563-3.644c-0.001-0.666-0.056-1.385-0.134-2.125&#xd;&#xa;&#x9;&#x9;&#x9;c0.738,0.08,1.457,0.135,2.123,0.135c1.377-0.002,2.599-0.17,3.644-0.563c1.039-0.39,1.923-1.037,2.456-1.964&#xd;&#xa;&#x9;&#x9;&#x9;c0.38-0.655,0.554-1.403,0.552-2.167c-0.003-1.169-0.38-2.385-1.022-3.658c-0.409-0.805-0.936-1.637-1.555-2.488&#xd;&#xa;&#x9;&#x9;&#x9;c1.711-0.761,3.119-1.61,4.151-2.597c0.532-0.512,0.969-1.061,1.276-1.663c0.302-0.598,0.478-1.254,0.477-1.926&#xd;&#xa;&#x9;&#x9;&#x9;C68.501,35.828,68.325,35.172,68.018,34.573z M56.092,21.657c0.868-0.113,1.692-0.185,2.424-0.184&#xd;&#xa;&#x9;&#x9;&#x9;c1.211-0.001,2.211,0.157,2.938,0.433c0.73,0.28,1.171,0.646,1.431,1.094c0.185,0.322,0.283,0.693,0.284,1.167&#xd;&#xa;&#x9;&#x9;&#x9;c0.004,0.718-0.253,1.666-0.809,2.755c-0.408,0.81-0.979,1.694-1.689,2.627c-0.762-0.272-1.564-0.531-2.414-0.771&#xd;&#xa;&#x9;&#x9;&#x9;c-1.188-0.336-2.479-0.63-3.82-0.898C55.188,25.657,55.745,23.568,56.092,21.657z M15.832,24.167&#xd;&#xa;&#x9;&#x9;&#x9;c0.001-0.474,0.1-0.844,0.285-1.167l0,0c0.261-0.447,0.7-0.813,1.432-1.094c0.727-0.276,1.725-0.435,2.935-0.433&#xd;&#xa;&#x9;&#x9;&#x9;c0.732-0.001,1.556,0.071,2.425,0.184c0.346,1.908,0.903,3.994,1.655,6.212c-2.308,0.46-4.399,1.026-6.231,1.682&#xd;&#xa;&#x9;&#x9;&#x9;c-0.713-0.934-1.282-1.819-1.692-2.629C16.085,25.833,15.829,24.886,15.832,24.167z M13.642,38.645&#xd;&#xa;&#x9;&#x9;&#x9;c-0.408-0.39-0.697-0.771-0.879-1.128c-0.182-0.359-0.262-0.686-0.263-1.017c0.001-0.331,0.081-0.658,0.263-1.017&#xd;&#xa;&#x9;&#x9;&#x9;c0.315-0.624,0.977-1.327,1.985-2.008c0.787-0.535,1.782-1.053,2.944-1.539c0.556,0.655,1.159,1.319,1.819,1.992&#xd;&#xa;&#x9;&#x9;&#x9;c0.83,0.846,1.76,1.705,2.741,2.566c-1.766,1.549-3.301,3.084-4.558,4.564c-0.101-0.043-0.212-0.082-0.31-0.125&#xd;&#xa;&#x9;&#x9;&#x9;C15.732,40.221,14.454,39.426,13.642,38.645z M22.908,51.344c-0.869,0.112-1.692,0.186-2.424,0.184&#xd;&#xa;&#x9;&#x9;&#x9;c-1.21,0.002-2.209-0.156-2.936-0.434c-0.731-0.279-1.17-0.646-1.431-1.094c-0.185-0.322-0.284-0.693-0.285-1.168&#xd;&#xa;&#x9;&#x9;&#x9;c-0.003-0.718,0.253-1.665,0.807-2.754c0.41-0.811,0.979-1.694,1.691-2.627c0.762,0.271,1.563,0.531,2.414,0.771&#xd;&#xa;&#x9;&#x9;&#x9;c1.189,0.336,2.479,0.629,3.822,0.897C23.813,47.343,23.254,49.434,22.908,51.344z M26.566,39.966&#xd;&#xa;&#x9;&#x9;&#x9;c-0.481,1.108-0.923,2.196-1.324,3.261c-2.051-0.396-3.909-0.879-5.545-1.422c0.389-0.438,0.801-0.883,1.243-1.332&#xd;&#xa;&#x9;&#x9;&#x9;c0.854-0.872,1.822-1.765,2.858-2.665C24.675,38.528,25.597,39.248,26.566,39.966z M23.789,35.192&#xd;&#xa;&#x9;&#x9;&#x9;c-1.574-1.367-2.949-2.712-4.092-3.999c0.511-0.17,1.038-0.335,1.592-0.491c1.217-0.344,2.552-0.648,3.957-0.921&#xd;&#xa;&#x9;&#x9;&#x9;c0.399,1.061,0.84,2.145,1.319,3.25C25.594,33.749,24.667,34.471,23.789,35.192z M30.033,27.029&#xd;&#xa;&#x9;&#x9;&#x9;c-1.197,0.137-2.363,0.294-3.481,0.479c-0.676-1.967-1.196-3.818-1.543-5.498c1.684,0.347,3.538,0.868,5.508,1.546&#xd;&#xa;&#x9;&#x9;&#x9;C30.332,24.676,30.169,25.832,30.033,27.029z M31.777,17.745c-0.336,1.189-0.63,2.479-0.898,3.822&#xd;&#xa;&#x9;&#x9;&#x9;c-2.223-0.754-4.312-1.312-6.223-1.659c-0.112-0.869-0.185-1.692-0.184-2.424c-0.001-1.21,0.157-2.209,0.434-2.936&#xd;&#xa;&#x9;&#x9;&#x9;c0.28-0.732,0.646-1.171,1.093-1.432l0,0c0.323-0.185,0.694-0.283,1.167-0.285c0.718-0.003,1.666,0.253,2.755,0.808&#xd;&#xa;&#x9;&#x9;&#x9;c0.81,0.409,1.693,0.979,2.626,1.69C32.276,16.093,32.018,16.895,31.777,17.745z M36.035,23.567&#xd;&#xa;&#x9;&#x9;&#x9;c-1.109-0.481-2.197-0.923-3.262-1.324c0.398-2.051,0.881-3.91,1.424-5.545c0.438,0.389,0.882,0.8,1.332,1.242&#xd;&#xa;&#x9;&#x9;&#x9;c0.872,0.854,1.765,1.823,2.665,2.858C37.472,21.676,36.752,22.598,36.035,23.567z M34.94,14.695&#xd;&#xa;&#x9;&#x9;&#x9;c0.042-0.1,0.082-0.211,0.124-0.31c0.715-1.652,1.509-2.931,2.29-3.743c0.39-0.407,0.772-0.697,1.128-0.879&#xd;&#xa;&#x9;&#x9;&#x9;C38.841,9.581,39.169,9.501,39.5,9.5c0.331,0.001,0.659,0.081,1.018,0.263c0.623,0.315,1.326,0.977,2.008,1.985&#xd;&#xa;&#x9;&#x9;&#x9;c0.535,0.788,1.053,1.783,1.537,2.946c-0.653,0.556-1.317,1.159-1.99,1.818c-0.846,0.83-1.704,1.76-2.566,2.741&#xd;&#xa;&#x9;&#x9;&#x9;C37.955,17.487,36.42,15.952,34.94,14.695z M42.971,23.565c-0.72-0.971-1.439-1.897-2.162-2.776&#xd;&#xa;&#x9;&#x9;&#x9;c1.367-1.573,2.713-2.948,3.998-4.091c0.17,0.51,0.336,1.037,0.491,1.591c0.345,1.217,0.647,2.552,0.921,3.957&#xd;&#xa;&#x9;&#x9;&#x9;C45.158,22.645,44.074,23.085,42.971,23.565z M46.448,15.333c0.934-0.713,1.819-1.283,2.63-1.693&#xd;&#xa;&#x9;&#x9;&#x9;c1.089-0.555,2.035-0.811,2.755-0.808c0.474,0.001,0.845,0.1,1.167,0.285c0.447,0.26,0.813,0.699,1.093,1.431&#xd;&#xa;&#x9;&#x9;&#x9;c0.276,0.727,0.435,1.726,0.435,2.936c0.002,0.731-0.071,1.556-0.185,2.425c-1.907,0.347-3.993,0.903-6.213,1.655&#xd;&#xa;&#x9;&#x9;&#x9;C47.67,19.256,47.104,17.164,46.448,15.333z M48.971,27.034c-0.137-1.197-0.293-2.363-0.479-3.481&#xd;&#xa;&#x9;&#x9;&#x9;c1.967-0.676,3.816-1.196,5.498-1.543c-0.348,1.684-0.868,3.538-1.547,5.508C51.324,27.333,50.168,27.17,48.971,27.034z&#xd;&#xa;&#x9;&#x9;&#x9; M52.434,33.035c0.481-1.109,0.924-2.197,1.324-3.262c2.051,0.398,3.909,0.88,5.545,1.423c-0.39,0.438-0.801,0.882-1.242,1.332&#xd;&#xa;&#x9;&#x9;&#x9;c-0.854,0.872-1.822,1.765-2.857,2.665C54.324,34.473,53.402,33.753,52.434,33.035z M53.754,43.219&#xd;&#xa;&#x9;&#x9;&#x9;c-0.398-1.061-0.84-2.145-1.318-3.25c0.972-0.718,1.896-1.439,2.775-2.16c1.573,1.367,2.947,2.712,4.091,4&#xd;&#xa;&#x9;&#x9;&#x9;c-0.511,0.168-1.036,0.334-1.591,0.489C56.493,42.643,55.158,42.945,53.754,43.219z M63.167,48.833&#xd;&#xa;&#x9;&#x9;&#x9;c-0.001,0.474-0.101,0.845-0.284,1.167c-0.26,0.447-0.699,0.813-1.432,1.094c-0.727,0.276-1.725,0.436-2.936,0.434&#xd;&#xa;&#x9;&#x9;&#x9;c-0.731,0.002-1.557-0.07-2.425-0.184c-0.347-1.908-0.903-3.994-1.655-6.214c2.309-0.46,4.398-1.026,6.23-1.682&#xd;&#xa;&#x9;&#x9;&#x9;c0.713,0.935,1.282,1.819,1.691,2.631C62.914,47.168,63.171,48.115,63.167,48.833z M66.236,37.517&#xd;&#xa;&#x9;&#x9;&#x9;c-0.314,0.624-0.977,1.327-1.983,2.008c-0.788,0.536-1.782,1.054-2.946,1.54c-0.556-0.655-1.158-1.318-1.818-1.993&#xd;&#xa;&#x9;&#x9;&#x9;c-0.828-0.846-1.76-1.705-2.74-2.567c1.766-1.549,3.302-3.084,4.559-4.564c0.101,0.042,0.213,0.082,0.311,0.124&#xd;&#xa;&#x9;&#x9;&#x9;c1.652,0.715,2.931,1.509,3.742,2.29c0.408,0.39,0.697,0.771,0.879,1.128c0.182,0.359,0.261,0.686,0.262,1.017&#xd;&#xa;&#x9;&#x9;&#x9;C66.499,36.831,66.42,37.158,66.236,37.517z"/>
  </g>
  <g>
   <g>
    <path fill="#FFFFFF" d="M47.5,52.5c0,6-6.117,17.471-6.117,17.471c-1.035,1.941-2.73,1.941-3.765,0&#xd;&#xa;&#x9;&#x9;&#x9;&#x9;c0,0-6.118-11.471-6.118-17.471c0-4.419,3.581-8,8-8S47.5,48.081,47.5,52.5z"/>
   </g>
   <circle fill="#FFFFFF" cx="39.5" cy="36.5" r="6"/>
  </g>
 </g>
</svg>
